<?xml version="1.0" encoding="UTF-8"?>
<svg id="Calque_2" data-name="Calque 2" xmlns="http://www.w3.org/2000/svg" viewBox="0 0 97.37 104.75">
  <defs>
    <style>
      .cls-1, .cls-2, .cls-3 {
        fill: #6ba3e8;
      }

      .cls-4 {
        fill: #fff;
      }

      .cls-2 {
        stroke: #6ba3e8;
        stroke-width: 2px;
      }

      .cls-2, .cls-3 {
        stroke-miterlimit: 10;
      }

      .cls-5 {
        fill: #cbd5e1;
      }

      .cls-3 {
        stroke: #fff;
        stroke-width: .75px;
      }
    </style>
  </defs>
  <g id="prepamedecine-logo">
    <g>
      <path class="cls-5" d="M10.35,24.27v49.58c2.76,0,5.26.39,7.82,1.4,7.89,3.11,15.26,7.53,21.71,13.03-.4-3.17,1.06-6.06,4.03-7.24v-6.36c-3.74-.15-7.18-2.91-9.01-6.18s-1.83-7.49,0-10.76,5.42-5.48,9.17-5.63v-6.98c-1.68-2.12-4.38-3.84-7.01-4.47-2.36-.57-4.63-1.58-6.22-3.41s-2.54-4.21-2.64-6.64c-4.85-3.88-11.63-6.34-17.84-6.34Z"/>
      <path class="cls-5" d="M7.16,35.15c-2.06-1.51-4.6-2.36-7.16-2.42v51.14c14.84,0,29.92,3.1,41.51,12.37-8.72-10.48-21.27-17.63-34.83-19.08l.48-42.02Z"/>
      <path class="cls-5" d="M90.22,35.15c2.06-1.51,4.6-2.36,7.16-2.42v51.14c-14.84,0-29.92,3.1-41.51,12.37,8.72-10.48,21.27-17.63,34.83-19.08l-.48-42.02Z"/>
      <path class="cls-5" d="M62.11,36.47c6.15-6.78,15.04-11.01,24.18-11.5v48.04c-13.13,2.63-25.32,10.37-32.7,21.54v-9.22c3.93,0,6.55-4.69,6.47-8.62-.08-3.93-3.12-7.61-6.97-8.42v-9.53c5.23,0,10.5-3.08,12.46-7.93s.6-11.03-3.44-14.35Z"/>
      <path class="cls-1" d="M52.5,11v21.74l-7.19-1.23V11.36c-2.04-1.83-2.52-5.4-1.4-7.96.43-.97,1.09-1.84,1.92-2.45,2.25-1.65,5.71-1.07,7.36,1.24s1.45,7-.7,8.81Z"/>
      <polygon class="cls-1" points="49.65 104.75 49.36 76.19 45.69 74.81 47.21 104.75 49.65 104.75"/>
      <path class="cls-1" d="M52.68,14.77v5.38c4.41,0,8.76,3.15,13.16,2.84.74-.05,1.5-.21,2.13-.62,4.21-2.69-2.71-6.66-4.91-7.54-3.16-1.27-7.09-.32-10.38-.06Z"/>
      <path class="cls-2" d="M45.15,19.61v-5.07c-3.55.7-7.38.81-10.5,2.63s-5.73,4.92-6.02,8.53c-.39,4.94,3.63,9.28,8.15,11.33s9.57,2.48,14.36,3.78c2.52.68,5.29,1.95,5.97,4.47.58,2.16-.73,4.49-2.58,5.75s-4.13,1.69-6.35,2.01-4.5.61-6.48,1.64c-3.09,1.61-5.11,5.08-4.98,8.56s2.4,6.79,5.6,8.17c2.24.97,4.8,1.02,7.04,1.99s4.2,3.51,3.21,5.74c-.65,1.45-2.28,2.18-3.83,2.54s-3.2.52-4.54,1.36c-2.36,1.49-3.06,4.81-2.17,7.46s3.02,4.69,5.32,6.28v-3.18c-1.42.71-3.17-1.23-3.48-2.78s.6-3.16,1.87-4.1,2.86-1.36,4.4-1.71,3.14-.66,4.52-1.44c2.07-1.17,3.5-3.4,3.7-5.77s-.83-4.81-2.68-6.31c-1.61-1.31-3.68-1.88-5.69-2.39s-4.09-1.03-5.75-2.26-2.83-3.4-2.25-5.39c.47-1.61,1.97-2.75,3.56-3.3s3.3-.62,4.97-.81c3.4-.39,6.85-1.34,9.54-3.46s4.5-5.58,3.96-8.97c-.63-3.97-4.24-6.87-8.03-8.23s-7.87-1.59-11.79-2.53c-2.83-.68-5.79-1.92-7.24-4.45-1.3-2.27-1.02-5.35.68-7.35s5.06-3.63,7.52-2.71Z"/>
      <polygon class="cls-4" points="62.42 18.1 62.42 16.3 64.52 16.3 64.52 18.3 62.42 18.1"/>
      <polygon class="cls-3" points="45.51 41.97 46.35 65.49 52.14 67.67 52.14 44.33 45.51 41.97"/>
      <circle class="cls-1" cx="48.8" cy="6.1" r="6.1"/>
    </g>
  </g>
</svg>
